<?xml version="1.0" encoding="utf-8"?>
<!-- Generator: Adobe Illustrator 24.0.0, SVG Export Plug-In . SVG Version: 6.00 Build 0)  -->
<svg version="1.1" id="Layer_1" xmlns="http://www.w3.org/2000/svg" xmlns:xlink="http://www.w3.org/1999/xlink" x="0px" y="0px"
	 viewBox="0 0 249.96 193.36" style="enable-background:new 0 0 249.96 193.36;" xml:space="preserve">
<style type="text/css">
	.st0{fill:url(#SVGID_1_);}
	.st1{fill:url(#SVGID_2_);}
	.st2{fill:url(#SVGID_3_);}
	.st3{fill:url(#SVGID_4_);}
	.st4{fill:url(#SVGID_5_);}
	.st5{fill:url(#SVGID_6_);}
	.st6{fill:url(#SVGID_7_);}
	.st7{fill:url(#SVGID_8_);}
	.st8{fill:url(#SVGID_9_);}
	.st9{fill:url(#SVGID_10_);}
	.st10{fill:url(#SVGID_11_);}
	.st11{fill:url(#SVGID_12_);}
	.st12{fill:url(#SVGID_13_);}
	.st13{fill:url(#SVGID_14_);}
	.st14{fill:url(#SVGID_15_);}
	.st15{fill:url(#SVGID_16_);}
	.st16{fill:url(#SVGID_17_);}
	.st17{fill:url(#SVGID_18_);}
	.st18{fill:url(#SVGID_19_);}
</style>
<g>
	<linearGradient id="SVGID_1_" gradientUnits="userSpaceOnUse" x1="216.9926" y1="36.4536" x2="216.9926" y2="36.4536">
		<stop  offset="0.107" style="stop-color:#FF7300"/>
		<stop  offset="0.2498" style="stop-color:#F97C01"/>
		<stop  offset="0.4863" style="stop-color:#EA9602"/>
		<stop  offset="0.5521" style="stop-color:#E59E03"/>
		<stop  offset="0.8465" style="stop-color:#E5C500"/>
		<stop  offset="0.9944" style="stop-color:#BF6F00"/>
	</linearGradient>
	<path class="st0" d="M216.99,36.45"/>
	<linearGradient id="SVGID_2_" gradientUnits="userSpaceOnUse" x1="178.6626" y1="4.9836" x2="178.6626" y2="4.9836">
		<stop  offset="0.107" style="stop-color:#FF7300"/>
		<stop  offset="0.2498" style="stop-color:#F97C01"/>
		<stop  offset="0.4863" style="stop-color:#EA9602"/>
		<stop  offset="0.5521" style="stop-color:#E59E03"/>
		<stop  offset="0.8465" style="stop-color:#E5C500"/>
		<stop  offset="0.9944" style="stop-color:#BF6F00"/>
	</linearGradient>
	<path class="st1" d="M178.66,4.98"/>
	<linearGradient id="SVGID_3_" gradientUnits="userSpaceOnUse" x1="17.0126" y1="4.9836" x2="17.0126" y2="4.9836">
		<stop  offset="0.107" style="stop-color:#FF7300"/>
		<stop  offset="0.2498" style="stop-color:#F97C01"/>
		<stop  offset="0.4863" style="stop-color:#EA9602"/>
		<stop  offset="0.5521" style="stop-color:#E59E03"/>
		<stop  offset="0.8465" style="stop-color:#E5C500"/>
		<stop  offset="0.9944" style="stop-color:#BF6F00"/>
	</linearGradient>
	<path class="st2" d="M17.01,4.98"/>
	<linearGradient id="SVGID_4_" gradientUnits="userSpaceOnUse" x1="113.4326" y1="36.4536" x2="113.4326" y2="36.4536">
		<stop  offset="0.107" style="stop-color:#FF7300"/>
		<stop  offset="0.2498" style="stop-color:#F97C01"/>
		<stop  offset="0.4863" style="stop-color:#EA9602"/>
		<stop  offset="0.5521" style="stop-color:#E59E03"/>
		<stop  offset="0.8465" style="stop-color:#E5C500"/>
		<stop  offset="0.9944" style="stop-color:#BF6F00"/>
	</linearGradient>
	<path class="st3" d="M113.43,36.45"/>
	<linearGradient id="SVGID_5_" gradientUnits="userSpaceOnUse" x1="216.9926" y1="36.4536" x2="216.9926" y2="36.4536">
		<stop  offset="0.107" style="stop-color:#FF7300"/>
		<stop  offset="0.2498" style="stop-color:#F97C01"/>
		<stop  offset="0.4863" style="stop-color:#EA9602"/>
		<stop  offset="0.5521" style="stop-color:#E59E03"/>
		<stop  offset="0.8465" style="stop-color:#E5C500"/>
		<stop  offset="0.9944" style="stop-color:#BF6F00"/>
	</linearGradient>
	<path class="st4" d="M216.99,36.45"/>
	<linearGradient id="SVGID_6_" gradientUnits="userSpaceOnUse" x1="216.9926" y1="36.4536" x2="216.9926" y2="36.4536">
		<stop  offset="0.107" style="stop-color:#FF7300"/>
		<stop  offset="0.2498" style="stop-color:#F97C01"/>
		<stop  offset="0.4863" style="stop-color:#EA9602"/>
		<stop  offset="0.5521" style="stop-color:#E59E03"/>
		<stop  offset="0.8465" style="stop-color:#E5C500"/>
		<stop  offset="0.9944" style="stop-color:#BF6F00"/>
	</linearGradient>
	<path class="st5" d="M216.99,36.45"/>
	<linearGradient id="SVGID_7_" gradientUnits="userSpaceOnUse" x1="113.4326" y1="36.4536" x2="113.4326" y2="36.4536">
		<stop  offset="0.107" style="stop-color:#FF7300"/>
		<stop  offset="0.2498" style="stop-color:#F97C01"/>
		<stop  offset="0.4863" style="stop-color:#EA9602"/>
		<stop  offset="0.5521" style="stop-color:#E59E03"/>
		<stop  offset="0.8465" style="stop-color:#E5C500"/>
		<stop  offset="0.9944" style="stop-color:#BF6F00"/>
	</linearGradient>
	<path class="st6" d="M113.43,36.45"/>
	<linearGradient id="SVGID_8_" gradientUnits="userSpaceOnUse" x1="203.5038" y1="186.5335" x2="203.5038" y2="186.5335">
		<stop  offset="0.107" style="stop-color:#FF7300"/>
		<stop  offset="0.2498" style="stop-color:#F97C01"/>
		<stop  offset="0.4863" style="stop-color:#EA9602"/>
		<stop  offset="0.5521" style="stop-color:#E59E03"/>
		<stop  offset="0.8465" style="stop-color:#E5C500"/>
		<stop  offset="0.9944" style="stop-color:#BF6F00"/>
	</linearGradient>
	<path class="st7" d="M203.5,186.53"/>
	<linearGradient id="SVGID_9_" gradientUnits="userSpaceOnUse" x1="202.8872" y1="185.8636" x2="202.8872" y2="185.8636">
		<stop  offset="0.107" style="stop-color:#FF7300"/>
		<stop  offset="0.2498" style="stop-color:#F97C01"/>
		<stop  offset="0.4863" style="stop-color:#EA9602"/>
		<stop  offset="0.5521" style="stop-color:#E59E03"/>
		<stop  offset="0.8465" style="stop-color:#E5C500"/>
		<stop  offset="0.9944" style="stop-color:#BF6F00"/>
	</linearGradient>
	<line class="st8" x1="202.89" y1="185.86" x2="202.89" y2="185.86"/>
	<linearGradient id="SVGID_10_" gradientUnits="userSpaceOnUse" x1="216.2429" y1="36.4536" x2="216.2429" y2="36.4536">
		<stop  offset="0.107" style="stop-color:#FF7300"/>
		<stop  offset="0.2498" style="stop-color:#F97C01"/>
		<stop  offset="0.4863" style="stop-color:#EA9602"/>
		<stop  offset="0.5521" style="stop-color:#E59E03"/>
		<stop  offset="0.8465" style="stop-color:#E5C500"/>
		<stop  offset="0.9944" style="stop-color:#BF6F00"/>
	</linearGradient>
	<path class="st9" d="M216.24,36.45"/>
	<linearGradient id="SVGID_11_" gradientUnits="userSpaceOnUse" x1="207.1726" y1="84.5036" x2="207.1726" y2="84.5036">
		<stop  offset="0.107" style="stop-color:#FF7300"/>
		<stop  offset="0.2498" style="stop-color:#F97C01"/>
		<stop  offset="0.4863" style="stop-color:#EA9602"/>
		<stop  offset="0.5521" style="stop-color:#E59E03"/>
		<stop  offset="0.8465" style="stop-color:#E5C500"/>
		<stop  offset="0.9944" style="stop-color:#BF6F00"/>
	</linearGradient>
	<path class="st10" d="M207.17,84.5"/>
	<linearGradient id="SVGID_12_" gradientUnits="userSpaceOnUse" x1="151.3063" y1="111.4031" x2="151.3288" y2="111.3641">
		<stop  offset="0.107" style="stop-color:#FF7300"/>
		<stop  offset="0.2498" style="stop-color:#F97C01"/>
		<stop  offset="0.4863" style="stop-color:#EA9602"/>
		<stop  offset="0.5521" style="stop-color:#E59E03"/>
		<stop  offset="0.8465" style="stop-color:#E5C500"/>
		<stop  offset="0.9944" style="stop-color:#BF6F00"/>
	</linearGradient>
	<line class="st11" x1="151.36" y1="111.38" x2="151.27" y2="111.38"/>
	<g>
		<linearGradient id="SVGID_13_" gradientUnits="userSpaceOnUse" x1="5.7732" y1="185.8798" x2="5.7919" y2="185.8474">
			<stop  offset="0.107" style="stop-color:#FF7300"/>
			<stop  offset="0.2498" style="stop-color:#F97C01"/>
			<stop  offset="0.4863" style="stop-color:#EA9602"/>
			<stop  offset="0.5521" style="stop-color:#E59E03"/>
			<stop  offset="0.8465" style="stop-color:#E5C500"/>
			<stop  offset="0.9944" style="stop-color:#BF6F00"/>
		</linearGradient>
		<path class="st12" d="M5.8,185.85c-0.01,0.01-0.03,0.01-0.04,0.02"/>
	</g>
	<linearGradient id="SVGID_14_" gradientUnits="userSpaceOnUse" x1="51.1139" y1="212.0141" x2="173.767" y2="-0.4273">
		<stop  offset="0.107" style="stop-color:#FF7300"/>
		<stop  offset="0.2498" style="stop-color:#F97C01"/>
		<stop  offset="0.4863" style="stop-color:#EA9602"/>
		<stop  offset="0.5521" style="stop-color:#E59E03"/>
		<stop  offset="0.8465" style="stop-color:#E5C500"/>
		<stop  offset="0.9944" style="stop-color:#BF6F00"/>
	</linearGradient>
	<path class="st13" d="M207.18,84.5c7.85-10.03,21.94-32.8-0.82-62.69l-0.01-0.01c-3.95-4.64-8.62-8.57-14.19-11.59
		c-6.47-3.52-13.77-5.23-21.14-5.23H17.01l43.92,27.83c2.69,1.71,5.81,2.62,8.99,2.65l51.95,0.35h15.7
		c5.55,1.86,12.17,7.7,17.46,8.76c1.84,0.37,7.28,0.51,8.29,0.43h0.05c1.34-0.01,2.5-0.13,3.73-0.16c8.95-0.24,16.2,8.18,16.2,18.6
		c0,7.28-3.54,13.59-8.73,16.74c0.74-0.94,1.39-1.88,1.84-2.8c1.47-3.04-1.46-5.94-3.13-7.47c-4.8-4.4-27.03-2.48-33.7-0.55
		c-9.16,2.66-18.29,5.55-23.19,12.75c-5.12,7.5-6.02,17.2-4.22,22.82c0.14,0.43,0.32,0.79,0.55,1.09
		c-8.23,14.16-29.32,31.59-52.81,47.55H59.9c-18.22,12.38-37.87,23.88-54.1,32.28l197.21,0.01
		C246.88,172.63,259.81,108.4,207.18,84.5z M189.2,154.26c-0.07,0.04-0.11,0.12-0.23,0.12h-73.22V154
		c8.64-4.48,16.9-11.15,23.34-18.81c6.21-7.37,10.73-15.67,12.27-23.81h37.62c0.06-0.02,0.06,0.03,0.09,0.05
		c9.19,4.85,15.16,12.65,15.16,21.46C204.23,141.64,198.3,149.41,189.2,154.26z"/>
	<linearGradient id="SVGID_15_" gradientUnits="userSpaceOnUse" x1="202.9707" y1="185.8941" x2="202.9944" y2="185.8531">
		<stop  offset="0.107" style="stop-color:#FF7300"/>
		<stop  offset="0.2498" style="stop-color:#F97C01"/>
		<stop  offset="0.4863" style="stop-color:#EA9602"/>
		<stop  offset="0.5521" style="stop-color:#E59E03"/>
		<stop  offset="0.8465" style="stop-color:#E5C500"/>
		<stop  offset="0.9944" style="stop-color:#BF6F00"/>
	</linearGradient>
	<path class="st14" d="M203.01,185.86c-0.02,0.01-0.04,0.01-0.06,0.02"/>
	<linearGradient id="SVGID_16_" gradientUnits="userSpaceOnUse" x1="136.2895" y1="49.5701" x2="140.2471" y2="42.7154">
		<stop  offset="0.107" style="stop-color:#FF7300"/>
		<stop  offset="0.2498" style="stop-color:#F97C01"/>
		<stop  offset="0.4863" style="stop-color:#EA9602"/>
		<stop  offset="0.5521" style="stop-color:#E59E03"/>
		<stop  offset="0.8465" style="stop-color:#E5C500"/>
		<stop  offset="0.9944" style="stop-color:#BF6F00"/>
	</linearGradient>
	<path class="st15" d="M147.84,48.52h-12.61c-0.75,0-1.47-0.3-2-0.83l-4.32-4.31h11.72c0.67,0,1.31,0.23,1.82,0.65L147.84,48.52z"/>
	<linearGradient id="SVGID_17_" gradientUnits="userSpaceOnUse" x1="203.0463" y1="185.8831" x2="203.0688" y2="185.8441">
		<stop  offset="0.107" style="stop-color:#FF7300"/>
		<stop  offset="0.2498" style="stop-color:#F97C01"/>
		<stop  offset="0.4863" style="stop-color:#EA9602"/>
		<stop  offset="0.5521" style="stop-color:#E59E03"/>
		<stop  offset="0.8465" style="stop-color:#E5C500"/>
		<stop  offset="0.9944" style="stop-color:#BF6F00"/>
	</linearGradient>
	<line class="st16" x1="203.1" y1="185.86" x2="203.01" y2="185.86"/>
	<linearGradient id="SVGID_18_" gradientUnits="userSpaceOnUse" x1="5.7776" y1="185.8623" x2="5.7876" y2="185.8449">
		<stop  offset="0.107" style="stop-color:#FF7300"/>
		<stop  offset="0.2498" style="stop-color:#F97C01"/>
		<stop  offset="0.4863" style="stop-color:#EA9602"/>
		<stop  offset="0.5521" style="stop-color:#E59E03"/>
		<stop  offset="0.8465" style="stop-color:#E5C500"/>
		<stop  offset="0.9944" style="stop-color:#BF6F00"/>
	</linearGradient>
	<line class="st17" x1="5.8" y1="185.85" x2="5.76" y2="185.85"/>
	<g>
		<linearGradient id="SVGID_19_" gradientUnits="userSpaceOnUse" x1="151.294" y1="111.344" x2="151.5312" y2="110.9332">
			<stop  offset="0.107" style="stop-color:#FF7300"/>
			<stop  offset="0.2498" style="stop-color:#F97C01"/>
			<stop  offset="0.4863" style="stop-color:#EA9602"/>
			<stop  offset="0.5521" style="stop-color:#E59E03"/>
			<stop  offset="0.8465" style="stop-color:#E5C500"/>
			<stop  offset="0.9944" style="stop-color:#BF6F00"/>
		</linearGradient>
		<path class="st18" d="M151.46,110.89c-0.03,0.16-0.06,0.33-0.1,0.49"/>
	</g>
</g>
</svg>
